# xmcd
#
# Track frame offsets:
# 150
# 31550
# 51322
# 70240
# 87672
# 109602
# 131117
# 153082
#
# Disc length: 2331 seconds
#
#
# Revision: 0
# Processed by: cddbd v1.5.2PL0 Copyright (c) Steve Scherf et al.
# Submitted via: Nero 7, 11, 10, 0 
#
DISCID=63091908
DTITLE=Alex Taylor - Dinnertime
DYEAR=1972
DGENRE=Blues
TTITLE0=Change Your Sexy Ways
TTITLE1=Let's Burn Down The Cornfield
TTITLE2=Comin' Back To You
TTITLE3=Four Days Gone
TTITLE4=Payday
TTITLE5=Who's Been Talkin'
TTITLE6=Who Will The Next Fool Be
TTITLE7=From A Buick Six
EXTD=
EXTT0=Change Your Sexy Ways
EXTT1=Let's Burn Down The Cornfield
EXTT2=Comin' Back To You
EXTT3=Four Days Gone
EXTT4=Payday
EXTT5=Who's Been Talkin'
EXTT6=Who Will The Next Fool Be
EXTT7=From A Buick Six
PLAYORDER=
